HIERARCHY
ROOT Hips
{
	OFFSET 0.000000 89.005402 0.000000
	CHANNELS 6 Xposition Yposition Zposition Xrotation Yrotation Zrotation
	JOINT Spine
	{
		OFFSET 0.116900 10.681000 0.373400
		CHANNELS 3 Xrotation Yrotation Zrotation
		JOINT Spine1
		{
			OFFSET 0.000000 13.840401 0.053500
			CHANNELS 3 Xrotation Yrotation Zrotation
			JOINT Spine2
			{
				OFFSET 0.000000 14.712700 -0.366200
				CHANNELS 3 Xrotation Yrotation Zrotation
				JOINT Neck
				{
					OFFSET 0.000000 35.415497 -3.314200
					CHANNELS 3 Xrotation Yrotation Zrotation
					JOINT Head
					{
						OFFSET 0.000000 16.899200 1.218300
						CHANNELS 3 Xrotation Yrotation Zrotation
						JOINT HeadTop_End
						{
							OFFSET 0.000000 22.206207 2.192500
							CHANNELS 3 Xrotation Yrotation Zrotation
							End Site
							{
								OFFSET 0.000000 22.314178 0.000000
							}
						}
					}
				}
				JOINT LeftShoulder
				{
					OFFSET 12.896400 26.716293 -4.548400
					CHANNELS 3 Xrotation Yrotation Zrotation
					JOINT LeftArm
					{
						OFFSET 19.027000 -4.857010 -1.718400
						CHANNELS 3 Xrotation Yrotation Zrotation
						JOINT LeftForeArm
						{
							OFFSET 24.179897 0.000000 0.000000
							CHANNELS 3 Xrotation Yrotation Zrotation
							JOINT LeftHand
							{
								OFFSET 27.156403 0.000000 0.000000
								CHANNELS 3 Xrotation Yrotation Zrotation
								JOINT LeftHandIndex1
								{
									OFFSET 16.441200 0.000000 0.000000
									CHANNELS 3 Xrotation Yrotation Zrotation
									JOINT LeftHandIndex2
									{
										OFFSET 4.821899 0.000000 0.000000
										CHANNELS 3 Xrotation Yrotation Zrotation
										JOINT LeftHandIndex3
										{
											OFFSET 6.386497 0.000000 0.000000
											CHANNELS 3 Xrotation Yrotation Zrotation
											JOINT LeftHandIndex4
											{
												OFFSET 5.188988 0.000000 0.000000
												CHANNELS 3 Xrotation Yrotation Zrotation
												End Site
												{
													OFFSET -0.178703 5.185913 0.000177
												}
											}
										}
									}
								}
								JOINT LeftHandThumb1
								{
									OFFSET 6.534897 -5.032593 5.900300
									CHANNELS 3 Xrotation Yrotation Zrotation
									JOINT LeftHandThumb2
									{
										OFFSET 3.818176 -2.204422 2.204423
										CHANNELS 3 Xrotation Yrotation Zrotation
										JOINT LeftHandThumb3
										{
											OFFSET 3.252098 -1.877594 1.877601
											CHANNELS 3 Xrotation Yrotation Zrotation
											JOINT LeftHandThumb4
											{
												OFFSET 5.251778 -3.032120 3.032117
												CHANNELS 3 Xrotation Yrotation Zrotation
												End Site
												{
													OFFSET 0.000023 6.780014 0.000000
												}
											}
										}
									}
								}
							}
						}
					}
				}
				JOINT RightShoulder
				{
					OFFSET -12.896300 26.716293 -4.548400
					CHANNELS 3 Xrotation Yrotation Zrotation
					JOINT RightArm
					{
						OFFSET -19.027000 -4.857010 -1.718400
						CHANNELS 3 Xrotation Yrotation Zrotation
						JOINT RightForeArm
						{
							OFFSET -24.179897 0.000000 0.000000
							CHANNELS 3 Xrotation Yrotation Zrotation
							JOINT RightHand
							{
								OFFSET -27.156403 0.000000 0.000000
								CHANNELS 3 Xrotation Yrotation Zrotation
								JOINT RightHandThumb1
								{
									OFFSET -6.591202 -4.852203 5.988100
									CHANNELS 3 Xrotation Yrotation Zrotation
									JOINT RightHandThumb2
									{
										OFFSET -3.818176 -2.204422 2.204423
										CHANNELS 3 Xrotation Yrotation Zrotation
										JOINT RightHandThumb3
										{
											OFFSET -3.252098 -1.877594 1.877601
											CHANNELS 3 Xrotation Yrotation Zrotation
											JOINT RightHandThumb4
											{
												OFFSET -5.251778 -3.032120 3.032117
												CHANNELS 3 Xrotation Yrotation Zrotation
												End Site
												{
													OFFSET -0.000023 6.780014 0.000000
												}
											}
										}
									}
								}
								JOINT RightHandIndex1
								{
									OFFSET -16.029404 0.000000 0.000000
									CHANNELS 3 Xrotation Yrotation Zrotation
									JOINT RightHandIndex2
									{
										OFFSET -5.213303 0.000000 0.000000
										CHANNELS 3 Xrotation Yrotation Zrotation
										JOINT RightHandIndex3
										{
											OFFSET -6.386528 0.000000 0.000000
											CHANNELS 3 Xrotation Yrotation Zrotation
											JOINT RightHandIndex4
											{
												OFFSET -5.189026 0.000000 0.000000
												CHANNELS 3 Xrotation Yrotation Zrotation
												End Site
												{
													OFFSET 0.236702 5.183624 0.001972
												}
											}
										}
									}
								}
							}
						}
					}
				}
			}
		}
	}
	JOINT LeftUpLeg
	{
		OFFSET 14.073000 -7.904099 -1.463000
		CHANNELS 3 Xrotation Yrotation Zrotation
		JOINT LeftLeg
		{
			OFFSET -0.109806 -34.073280 4.093200
			CHANNELS 3 Xrotation Yrotation Zrotation
			JOINT LeftFoot
			{
				OFFSET 0.109806 -29.899420 -6.319000
				CHANNELS 3 Xrotation Yrotation Zrotation
				JOINT LeftToeBase
				{
					OFFSET 1.551100 -14.988700 20.535801
					CHANNELS 3 Xrotation Yrotation Zrotation
					JOINT LeftToe_End
					{
						OFFSET 0.221200 0.570800 13.248301
						CHANNELS 3 Xrotation Yrotation Zrotation
						End Site
						{
							OFFSET 0.000000 13.262435 0.000000
						}
					}
				}
			}
		}
	}
	JOINT RightUpLeg
	{
		OFFSET -13.839300 -7.904099 -1.463000
		CHANNELS 3 Xrotation Yrotation Zrotation
		JOINT RightLeg
		{
			OFFSET 0.109694 -34.073219 4.093300
			CHANNELS 3 Xrotation Yrotation Zrotation
			JOINT RightFoot
			{
				OFFSET -0.109694 -29.899384 -6.319200
				CHANNELS 3 Xrotation Yrotation Zrotation
				JOINT RightToeBase
				{
					OFFSET -1.551100 -14.988700 20.535801
					CHANNELS 3 Xrotation Yrotation Zrotation
					JOINT RightToe_End
					{
						OFFSET -0.221200 0.570900 13.248299
						CHANNELS 3 Xrotation Yrotation Zrotation
						End Site
						{
							OFFSET 0.000000 13.262440 0.000000
						}
					}
				}
			}
		}
	}
}
MOTION
Frames: 4
Frame Time: 0.033333
0.342095 81.770172 1.178019 -21.153968 -55.752167 -16.166366 21.473753 10.417614 1.008400 1.620196 0.233562 -7.464131 10.840940 -4.182629 -2.116170 0.344150 7.460473 0.875098 -7.055115 21.656592 11.877583 -0.000000 0.000000 0.000000 -37.581443 -4.847297 1.554882 -41.255046 -2.662875 -56.772577 0.000002 -68.143206 0.000008 -114.816108 0.738074 39.809952 -1.882822 2.129418 -39.817011 2.947091 5.081738 -60.200529 0.514392 2.402398 -24.167374 0.000001 0.000002 -0.000000 1.567993 0.456401 2.719342 19.473185 -1.474907 7.636922 -4.536186 -9.613081 1.492973 -0.000001 0.000001 -0.000000 -41.191488 -8.549917 -9.960720 -56.321405 56.912490 108.760114 0.007777 91.908808 -0.007676 -59.294184 -14.814612 -22.806905 8.377126 -4.904144 11.021998 21.620199 -18.183902 -18.379226 -0.702860 -49.821203 -32.535135 -0.000000 -0.000001 -0.000002 -1.101423 1.407130 15.159525 1.422365 -3.352186 45.974085 0.615836 -2.316447 29.773112 0.000000 -0.000000 -0.000000 -24.085247 3.375366 9.763432 66.748611 -1.909039 4.439340 7.457442 0.186219 -3.745197 -32.876419 4.384550 -7.887817 -0.000000 0.000001 -0.000000 -5.443265 -27.644241 -6.788800 41.465027 9.864379 -3.264432 -27.811031 -21.776656 -4.500462 -1.376756 0.000005 -0.000002 -0.000000 -0.000001 -0.000000 
-5.058967 79.221581 1.095182 -22.960511 -54.326129 -17.786110 22.139251 11.612717 3.155539 1.889841 0.610145 -6.572549 10.333945 -3.368587 -1.758672 0.069477 6.664169 0.956637 -6.637435 20.606332 8.117908 -0.000001 0.000001 0.000000 -34.259932 -6.966075 -0.932738 -42.843325 -7.538808 -54.186899 -0.000074 -62.415922 -0.000070 -119.782735 -0.294987 34.127460 -2.257854 0.797988 -34.683800 2.828058 5.011971 -58.847462 0.589035 2.562137 -25.890993 0.000001 -0.000001 0.000002 1.511671 0.515244 2.500204 23.055732 -9.044906 11.940052 -3.591972 -11.829149 4.659659 0.000001 0.000000 -0.000000 -37.513673 -8.437514 -8.571104 -55.883180 58.586398 103.530122 0.005416 90.661814 -0.005418 -58.624258 -14.962404 -23.604270 1.223354 -11.544930 11.955889 13.337702 -22.401803 -17.796628 -3.919210 -45.531165 -36.836259 0.000001 -0.000001 0.000002 -0.530932 0.007486 11.923244 1.411053 -3.341242 45.780412 0.666930 -2.403427 31.013280 0.000000 -0.000001 -0.000000 -32.048211 -0.861748 5.669420 76.900212 -8.016056 3.445358 19.674256 -0.413673 4.933496 -44.085483 9.062234 -8.334945 -0.000000 0.000001 0.000000 -0.293947 -25.729570 -3.403004 47.682558 5.592736 -3.574423 -35.375127 -22.205626 -4.123652 -1.520473 -0.000029 0.065117 -0.000000 0.000000 -0.000000 
-10.507944 77.349731 0.733770 -25.261822 -52.934895 -18.164951 24.645273 11.913939 3.807060 2.156639 0.790561 -5.713806 9.809975 -2.763046 -1.394183 -0.706309 6.060670 0.883548 -6.167006 20.238009 4.434982 -0.000000 -0.000000 -0.000000 -30.812920 -8.253073 0.457327 -44.255097 -9.309778 -54.324354 0.000019 -58.770219 0.000019 -124.973460 -0.926428 28.281667 -2.419324 -0.573433 -29.410637 2.664926 4.910023 -56.961196 0.645140 2.674522 -27.119107 -0.000000 -0.000000 0.000001 1.455295 0.575286 2.279166 27.626531 -11.016072 18.581398 -2.576379 -14.386888 7.955955 -0.000001 -0.000001 0.000000 -33.985792 -7.801869 -7.645400 -56.199906 60.993965 98.117286 -0.051867 90.738947 0.052047 -58.381151 -14.552944 -25.713948 -6.604055 -17.458841 12.003146 5.280295 -25.817301 -18.233419 -6.459619 -40.916528 -40.256831 -0.000001 -0.000001 -0.000001 -0.149938 -1.305637 8.568065 1.371395 -3.302250 45.096058 0.698291 -2.454812 31.753386 -0.000000 -0.000000 0.000001 -41.154922 -1.149858 0.414715 88.433048 -8.434902 4.158871 17.007410 -8.052286 0.554534 -25.474522 -2.603211 4.378323 0.000002 -0.000000 0.000000 6.204556 -26.071549 -2.355582 50.612798 3.099905 -2.236206 -42.269278 -21.031150 -4.186586 -3.903533 0.000008 -0.000002 0.000000 -0.000000 -0.000000 
-16.334888 76.835533 0.237637 -26.076344 -52.625808 -17.386574 26.305724 13.006609 3.907766 2.120451 1.117774 -4.564460 8.993481 -1.994914 -0.748681 -0.475546 5.576479 0.112348 -5.841983 19.703569 0.768795 -0.000000 -0.000000 0.000000 -27.518149 -10.146217 -2.449591 -44.583933 -12.612391 -51.891474 -0.000007 -55.664812 -0.000002 -130.114229 -1.060343 23.117912 -2.311624 -1.616139 -24.710518 2.552065 4.835024 -55.632560 0.733022 2.839377 -28.945768 0.000001 -0.000001 -0.000001 1.399439 0.635915 2.058465 31.772179 -12.874352 25.770816 -2.168680 -17.521385 11.788713 0.000001 -0.000000 0.000000 -30.328922 -2.915000 -6.241662 -45.899667 61.179090 84.002400 0.001091 93.012341 -0.001188 -56.867667 -16.230005 -28.964718 -14.868448 -22.937532 11.212583 -2.193695 -27.888233 -19.491816 -9.520039 -36.101190 -44.264486 -0.000000 -0.000000 0.000000 0.025842 -2.301779 5.840513 1.366913 -3.297813 45.018354 0.756689 -2.546674 33.091846 0.000000 -0.000000 -0.000000 -51.032616 1.440568 -0.815953 93.109289 -7.571082 -0.545037 16.948664 -8.587185 7.783035 3.934414 -0.056835 1.902518 -0.000001 0.000001 -0.000001 14.205829 -26.706239 -0.840474 47.451465 1.234706 -0.104485 -44.941480 -19.078207 -2.863510 -6.230715 0.000008 0.000005 0.000000 0.000001 -0.000000 
